<svg width="2590" height="618" viewBox="0 0 2590 618" fill="none" xmlns="http://www.w3.org/2000/svg">
<g clip-path="url(#clip0)">
<path d="M365.215 538.499C361.529 539.675 358.52 535.21 360.832 531.92L365.912 525.122C382.767 502.814 388.066 471.615 379.3 440.616C375.552 427.144 368.659 414.757 359.189 404.473C349.719 394.19 337.943 386.305 324.831 381.467C286.977 367.632 250.517 377.719 226.51 400.944C221.211 405.888 216.349 411.51 212.205 417.849C227.207 382.165 262.053 357.285 302.676 357.285C335.908 357.285 361.748 373.732 383.225 396.259C406.754 421.139 432.834 432.163 452.697 432.163C486.606 432.163 505.991 414.102 519.618 387.807L520.316 385.694C524.002 373.971 519.618 360.116 512.008 360.116C499.994 360.116 495.85 377.719 468.376 377.719C460.547 377.719 452.458 375.845 445.305 371.858C438.602 368.194 432.788 363.097 428.277 356.93C423.766 350.762 420.669 343.675 419.206 336.174C416.676 321.86 421.756 308.005 421.756 308.005C450.844 328.18 486.387 329.356 517.985 311.055C515.933 295.107 510.394 261.535 485.231 238.291C474.393 228.442 460.068 224.675 445.066 224.216V222.801C445.066 207.311 440.922 192.06 432.834 179.142C429.123 173.298 424.794 167.871 419.923 162.954C418.31 161.3 414.843 156.834 412.532 156.615C412.532 27.0342 340.749 2.87241 329.453 0.0415701C328.755 -0.17772 328.297 0.520022 328.755 0.978538C344.455 31.4998 325.986 55.9207 269.444 86.1828C214.975 115.069 207.822 162.715 207.822 162.715C207.822 162.715 205.292 119.754 244.282 83.8503C226.51 89.2329 216.369 92.303 199.753 100.516C181.25 109.615 164.401 121.751 149.906 136.42C127.512 158.947 111.116 187.355 101.652 217.637C97.5083 230.795 94.0416 244.869 93.1252 258.944C91.237 242.23 91.5451 225.34 94.0416 208.706C97.4463 186.86 104.719 165.797 115.519 146.508C121.057 136.659 128.429 127.968 134.207 118.339C122.89 124.678 112.291 131.955 102.13 139.949C61.6069 172.218 31.104 215.366 14.1899 264.346C-2.4259 312.69 -4.27874 365.519 7.73487 415.039C28.9729 502.356 93.6033 573.725 176.443 603.05C179.432 604.226 182.42 605.163 185.429 606.1C187.282 606.579 188.895 607.276 190.748 607.735C193.518 608.692 196.526 609.39 199.275 610.087C204.356 611.483 209.675 612.679 214.975 613.616L219.139 614.314L228.821 615.709C230.216 615.968 231.61 616.188 232.985 616.188H233.204C238.066 616.905 242.907 617.125 247.748 617.603C301.74 620.653 355.074 606.1 400.08 577.692C427.992 560.089 456.383 538.977 466.304 520.417C469.532 514.317 457.777 498.13 439.069 497.651C432.834 497.432 422.454 500.701 416.696 504.708C400.08 515.972 389.003 531.462 365.215 538.499ZM126.596 392.731C102.35 483.816 161.9 549.763 162.119 550.221C161.661 550.002 69.1179 482.879 109.721 374.191C144.367 281.71 266.914 282.647 267.831 282.647C267.133 282.886 152.675 295.087 126.576 392.731H126.596ZM316.284 277.025C314.69 277.244 314.212 274.912 315.606 274.434C332.919 268.333 360.373 258.485 366.828 254.498C371.909 251.209 370.534 244.63 374.22 223.279C381.591 180.079 412.293 156.834 412.532 156.834C411.835 158.03 374.22 228.662 403.527 284.76C403.803 285.232 403.906 285.784 403.819 286.324C403.733 286.863 403.461 287.355 403.051 287.716C402.641 288.077 402.118 288.284 401.572 288.301C401.027 288.318 400.492 288.145 400.06 287.81C384.839 277.025 346.985 272.799 316.303 277.025H316.284Z" fill="#FF5C00"/>
<path d="M775.541 360.791C788.598 368.24 799.372 379.118 806.7 392.249C814.072 405.626 818.017 421.355 818.017 438.958C818.017 456.561 814.311 472.29 806.7 485.667C799.582 499.015 788.761 510.022 775.541 517.364C762.391 524.86 747.389 528.628 730.774 528.628C718.083 528.628 706.308 526.036 695.709 521.112C685.217 516.094 676.164 508.502 669.39 499.044V526.515H639.386V281.229H670.546V377.716C677.459 368.546 686.225 361.509 696.625 356.804C707.37 352.028 719.017 349.628 730.774 349.767C747.389 349.527 762.391 353.295 775.541 360.791ZM757.769 492.963C766.535 487.78 773.469 480.504 778.549 471.114C783.629 461.744 786.16 450.939 786.16 438.958C786.16 426.757 783.629 416.192 778.549 406.802C773.839 397.758 766.625 390.262 757.769 385.212C749.003 380.029 739.081 377.696 728.004 377.696C717.166 377.696 707.224 380.288 698.458 385.212C689.558 390.197 682.334 397.71 677.698 406.802C672.618 416.192 670.307 426.997 670.307 438.958C670.307 451.159 672.837 461.724 677.678 471.114C682.759 480.504 689.692 487.78 698.458 492.943C707.463 498.126 717.146 500.698 728.004 500.698C739.081 500.698 749.003 498.107 757.769 492.943V492.963Z" fill="#FF4700"/>
<path d="M730.786 531.677C717.636 531.677 705.404 529.086 694.326 523.703C686.051 519.764 678.611 514.268 672.411 507.515V529.584H636.39V277.938H673.786V369.243C680.022 362.664 687.174 357.501 695.482 353.753C706.588 348.808 718.631 346.326 730.786 346.477C747.86 346.477 763.559 350.464 777.187 358.199C790.73 365.919 801.9 377.206 809.482 390.833C817.112 404.688 821.037 420.876 821.037 438.957C821.037 457.019 817.112 473.226 809.482 487.301C802.106 501.138 790.891 512.547 777.187 520.155C762.938 527.847 746.975 531.804 730.786 531.657V531.677ZM666.175 488.956L671.714 496.73C678.408 505.861 686.716 513.137 696.857 517.842C707.017 522.766 718.334 525.118 730.567 525.118C746.704 525.118 761.248 521.351 773.939 514.313C786.49 507.189 796.805 496.702 803.724 484.031C810.876 471.133 814.562 455.863 814.562 438.738C814.562 421.833 810.876 406.582 803.724 393.684C796.741 381.056 786.442 370.578 773.939 363.382C761.248 356.106 746.724 352.597 730.567 352.597C718.792 352.597 707.715 354.929 697.793 359.395C687.955 363.867 679.388 370.726 672.869 379.35L667.331 386.866V284.059H642.407V523.245H666.175V488.956ZM728.016 503.748C717.087 503.81 706.337 500.977 696.857 495.534C687.449 490.19 679.826 482.187 674.941 472.529C669.622 462.681 667.092 451.397 667.092 438.738C667.092 426.059 669.642 414.796 674.941 404.927C679.964 395.367 687.554 387.4 696.857 381.922C706.101 376.539 716.72 373.948 728.016 373.948C739.572 373.948 750.171 376.539 759.415 381.922C768.64 387.324 776.031 395.079 781.331 404.708C786.65 414.556 789.419 425.84 789.419 438.499C789.419 451.178 786.63 462.441 781.331 472.309C776.305 481.862 768.715 489.823 759.415 495.295C750.171 501.176 739.552 503.748 728.016 503.748ZM728.016 380.526C717.856 380.526 708.412 382.879 699.865 387.803C691.504 392.585 684.692 399.671 680.241 408.217C675.639 417.148 673.088 427.475 673.088 438.977C673.088 450.48 675.4 460.807 680.261 469.718C684.863 478.629 691.557 485.447 699.865 490.371C708.173 495.295 717.636 497.647 728.016 497.647C738.416 497.647 747.86 495.056 756.168 490.371C764.476 485.447 770.951 478.649 775.792 469.718C780.633 460.807 782.964 450.48 782.964 438.977C782.964 427.475 780.414 417.148 775.792 408.217C771.339 399.672 764.528 392.587 756.168 387.803C748.099 382.879 738.635 380.526 728.016 380.526Z" fill="#FF5C00"/>
<path d="M996.408 482.379L1006.09 507.019C989.256 522.509 967.56 530.264 940.783 530.264C912.393 530.264 890.019 521.811 873.164 505.145C856.09 488.479 847.782 465.952 847.782 438.022C847.782 411.488 855.851 389.659 871.789 372.036C887.469 354.453 909.404 345.761 937.536 345.761C960.646 345.761 980.012 353.277 995.014 368.527C1010.47 383.559 1018.1 402.816 1018.1 426.739C1018.1 434.255 1017.41 441.531 1016.25 447.871H882.628C884.022 464.297 889.999 477.435 901.096 486.824C911.934 496.214 926.239 500.919 943.333 500.919C965.707 500.919 983.478 494.819 996.408 482.379ZM935.703 375.106C920.481 375.106 908.01 379.332 898.088 388.024C888.166 396.696 882.389 407.96 880.556 422.293H986.028C985.331 407.74 980.49 395.978 971.484 387.785C962.718 379.332 950.705 375.106 935.703 375.106Z" fill="#FF4700"/>
<path d="M940.794 533.575C911.706 533.575 888.197 524.884 871.103 507.52C853.571 490.156 844.805 466.911 844.805 438.045C844.805 410.813 853.093 388.046 869.489 369.965C885.627 351.903 908.479 342.753 937.327 342.753C961.335 342.753 981.417 350.727 997.097 366.456C1013.04 381.946 1021.1 402.141 1021.1 426.781C1021.1 434.516 1020.43 441.792 1019.03 448.61L1018.57 451.202H885.886C887.719 465.276 893.258 476.321 902.721 484.514C913.101 493.445 926.489 497.891 943.105 497.891C964.801 497.891 982.114 492.03 994.347 480.288L997.575 477.238L1009.81 508.217L1008.19 509.633C990.881 525.581 968.268 533.575 940.794 533.575ZM937.347 348.853C910.332 348.853 888.875 357.306 873.872 374.191C858.412 391.096 850.782 412.687 850.782 438.045C850.782 465.037 859.09 486.867 875.247 503.054C891.405 519.262 913.34 527.236 940.794 527.236C965.718 527.236 986.498 520.199 1002.42 506.344L995.264 487.804C982.115 498.609 964.582 504.23 943.105 504.23C925.095 504.23 910.332 499.306 898.796 489.438C887.241 479.59 880.786 465.735 879.411 448.371L879.172 445.082H1013.73C1014.65 439.46 1015.13 433.34 1015.13 427C1015.13 404.234 1007.74 385.455 992.953 371.141C978.19 356.349 959.482 348.853 937.347 348.853ZM989.267 425.605H877.1L877.558 422.076C879.411 407.284 885.647 395.084 896.266 385.933C906.626 376.763 920.034 372.317 935.953 372.317C951.652 372.317 964.343 376.783 973.807 385.694C983.27 394.625 988.57 407.065 989.267 422.315V425.605ZM884.272 419.265H982.812C981.656 407.065 977.034 397.197 969.663 390.159C961.335 382.405 950.038 378.418 935.953 378.418C921.648 378.418 909.654 382.405 900.171 390.638C891.644 397.894 886.324 407.523 884.252 419.265H884.272Z" fill="#FF5C00"/>
<path d="M1097.95 526.537H1067.03V251.427H1097.95V526.537Z" fill="#FF4700"/>
<path d="M1101.19 529.586H1064.04V248.376H1101.19V529.586ZM1070.27 523.486H1094.98V254.715H1070.27V523.506V523.486Z" fill="#FF5C00"/>
<path d="M1191.42 526.537H1160.52V251.427H1191.44V526.537H1191.42ZM1271.97 349.789H1309.13L1233.9 431.923L1272.43 473.947C1289.96 494.142 1304.5 501.877 1316.52 497.192L1316.06 526.756C1304.28 530.524 1292.05 529.109 1279.8 522.53C1266.62 515.338 1255.26 505.225 1246.59 492.966L1198.35 434.515L1271.97 349.789Z" fill="#FF4700"/>
<path d="M1302.89 531.679C1294.82 531.679 1286.51 529.586 1278.18 525.1C1265.51 518.542 1253.98 508.215 1243.82 494.599L1194.41 434.753V529.586H1157.27V248.376H1194.43V433.577L1270.35 346.738H1316.06L1237.82 431.942L1274.5 471.833C1291.13 490.851 1304.74 498.347 1315.14 494.141L1319.52 492.486L1319.05 528.868L1316.97 529.586C1312.13 530.981 1307.51 531.699 1302.89 531.699V531.679ZM1202.04 434.274L1248.66 490.851C1258.12 504.009 1268.98 513.618 1280.97 519.718C1291.81 525.36 1302.43 526.755 1312.81 524.183L1313.05 501.178C1300.58 503.53 1286.51 495.078 1269.9 475.82L1229.25 431.703L1301.71 352.838H1273.1L1202.02 434.274H1202.04ZM1163.73 523.486H1188.43V254.715H1163.73V523.506V523.486Z" fill="#FF5C00"/>
<path d="M1502.07 526.536H1471.14V507.996C1456.38 523.007 1438.61 530.284 1417.37 530.284C1391.07 530.284 1370.06 521.831 1354.38 505.165C1338.92 488.499 1331.28 465.972 1331.28 438.042C1331.28 412.226 1340.53 390.157 1359.22 372.315C1377.9 354.472 1401.21 345.561 1429.15 345.561C1457.06 345.561 1481.31 352.14 1502.07 365.497V526.536ZM1422.45 500.938C1431.77 500.909 1440.95 498.653 1449.23 494.36C1458.21 489.914 1465.37 484.512 1471.14 477.953V386.868C1458.24 379.397 1443.6 375.432 1428.69 375.365C1409.52 375.365 1394.06 381.704 1381.83 394.144C1370.07 406.105 1364.06 421.376 1364.06 439.677C1364.06 458.456 1369.38 473.487 1380 484.532C1390.6 495.556 1404.68 500.938 1422.43 500.938H1422.45Z" fill="#FF4700"/>
<path d="M1417.6 533.575C1390.61 533.575 1368.67 524.883 1352.3 507.519C1336.36 490.155 1328.29 466.911 1328.29 438.283C1328.29 411.53 1337.97 388.743 1357.14 370.443C1376.52 352.142 1400.77 342.991 1429.14 342.991C1457.53 342.991 1482.45 349.789 1503.91 363.405L1505.31 364.342V529.807H1468.13V515.254C1453.8 527.475 1436.97 533.595 1417.58 533.595L1417.6 533.575ZM1429.16 348.853C1402.36 348.853 1379.53 357.544 1361.28 374.669C1343.51 391.814 1334.53 413.164 1334.53 438.064C1334.53 465.037 1342.14 487.105 1356.9 503.054C1371.9 519.022 1392.44 527.235 1417.6 527.235C1427.18 527.361 1436.68 525.532 1445.53 521.861C1454.38 518.19 1462.39 512.754 1469.07 505.884L1474.38 500.482V523.488H1499.07V367.612C1478.99 355.172 1455.44 348.833 1429.14 348.833L1429.16 348.853ZM1422.45 504.23C1403.98 504.23 1388.76 498.369 1377.68 486.886C1366.6 475.363 1361.06 459.415 1361.06 439.918C1361.06 420.919 1367.3 404.712 1379.75 392.033C1392.44 378.895 1408.84 372.317 1428.68 372.317C1444.14 372.317 1458.9 376.304 1472.75 384.079L1474.38 384.996V479.131L1473.69 480.068C1467.29 487.254 1459.52 493.084 1450.84 497.213C1441.61 501.658 1431.91 504.23 1422.45 504.23ZM1428.68 378.437C1410.67 378.437 1395.67 384.537 1384.13 396.259C1372.84 407.762 1367.3 422.315 1367.3 439.679C1367.3 457.521 1372.36 471.855 1382.28 482.181C1392.22 492.508 1405.83 497.671 1422.68 497.671C1431.21 497.671 1439.76 495.558 1448.07 491.332C1456.14 487.344 1462.83 482.161 1468.15 476.539V388.544C1456.07 381.874 1442.48 378.402 1428.68 378.457V378.437Z" fill="#FF5C00"/>
<path d="M1778.77 478.191L1793.56 500.957C1778.56 520.693 1756.4 530.542 1726.62 530.542C1698.7 530.542 1676.31 522.089 1659 505.423C1641.92 488.757 1633.62 466.23 1633.62 438.3C1633.62 412.464 1641.92 390.415 1658.78 372.573C1675.61 354.73 1696.39 345.819 1721.77 345.819C1752.26 345.819 1774.85 353.554 1790.09 369.044L1775.79 393.704C1762.4 381.484 1745.78 375.164 1725.94 375.164C1709.78 375.164 1695.7 381.265 1683.92 393.226C1672.39 404.968 1666.63 419.979 1666.63 438.061C1666.63 457.079 1672.6 472.33 1684.4 483.593C1696.39 495.096 1711.39 500.957 1729.17 500.957C1749.01 500.957 1765.62 493.462 1778.77 478.191Z" fill="#FF4700"/>
<path d="M1726.63 533.572C1698 533.572 1674.69 524.88 1656.92 507.516C1639.39 490.152 1630.38 466.908 1630.38 438.041C1630.38 411.288 1639.15 388.501 1656.46 370.201C1673.78 351.9 1695.71 342.49 1721.77 342.49C1752.93 342.49 1776.7 350.724 1792.4 366.672L1794.01 368.327L1776.48 398.609L1773.69 396.017C1761.02 384.295 1744.86 378.414 1725.93 378.414C1710.69 378.414 1697.09 384.275 1686.01 395.558C1675.15 406.583 1669.61 420.896 1669.61 438.021C1669.61 456.103 1675.15 470.655 1686.47 481.221C1698.02 492.026 1712.31 497.648 1729.16 497.648C1748.31 497.648 1764.23 490.372 1776.7 475.819L1779.49 472.769L1797.48 500.937L1796.08 502.811C1780.4 523.245 1757.09 533.572 1726.63 533.572ZM1721.55 348.85C1697.31 348.85 1676.76 357.522 1660.85 374.666C1644.71 391.811 1636.62 413.142 1636.62 438.041C1636.62 465.034 1644.93 486.863 1661.09 503.051C1677.7 519.258 1699.62 527.232 1726.63 527.232C1754.09 527.232 1775.32 518.321 1789.63 500.718L1778.31 483.095C1765.16 496.95 1748.55 503.988 1728.92 503.988C1710.47 503.988 1694.54 497.887 1682.08 485.926C1669.61 474.164 1663.38 457.996 1663.38 438.041C1663.38 419.262 1669.61 403.293 1681.63 391.093C1694.08 378.414 1708.84 372.074 1725.93 372.074C1745.08 372.074 1761.48 377.716 1775.08 388.741L1786.16 369.264C1771.4 355.887 1749.92 348.85 1721.55 348.85Z" fill="#FF5C00"/>
<path d="M1864.41 526.537H1833.47V349.789H1864.41V370.681C1874.77 354.733 1889.31 346.759 1908.02 346.759C1920.01 346.759 1929.02 348.852 1935.02 353.318L1924.18 382.882C1917.09 378.541 1908.94 376.263 1900.63 376.303C1884.95 376.303 1872.72 384.756 1864.41 401.422V526.537Z" fill="#FF4700"/>
<path d="M1867.63 529.567H1830.47V346.5H1867.63V361.272C1878.01 349.55 1891.64 343.43 1908.25 343.43C1920.94 343.43 1930.63 345.782 1937.1 350.726L1938.93 352.122L1926.02 387.328L1922.78 385.454C1916.2 381.34 1908.61 379.145 1900.86 379.114C1886.56 379.114 1875.7 386.63 1867.63 401.881V529.567ZM1836.71 523.467H1861.41V400.465L1861.61 399.767C1870.64 381.925 1883.79 373.014 1900.64 373.014C1908.25 373.014 1915.62 374.888 1922.56 378.397L1931.32 354.713C1926.02 351.424 1918.17 350.008 1908.01 350.008C1890.24 350.008 1876.63 357.285 1866.93 372.536L1861.15 381.227V353.059H1836.47V523.467H1836.71Z" fill="#FF5C00"/>
<path d="M2102.12 482.379L2111.8 507.019C2094.97 522.509 2073.27 530.264 2046.49 530.264C2018.1 530.264 1995.73 521.811 1978.88 505.145C1961.8 488.479 1953.49 465.952 1953.49 438.022C1953.49 411.488 1961.56 389.659 1977.48 372.036C1993.18 354.453 2015.12 345.761 2043.27 345.761C2066.34 345.761 2085.72 353.277 2100.72 368.527C2116.19 383.559 2123.82 402.816 2123.82 426.739C2123.82 434.255 2123.12 441.531 2121.96 447.871H1988.34C1989.73 464.297 1995.73 477.435 2006.81 486.824C2017.65 496.214 2031.95 500.919 2049.02 500.919C2071.42 500.919 2089.19 494.819 2102.12 482.379ZM2041.41 375.106C2026.19 375.106 2013.72 379.332 2003.8 388.024C1993.88 396.696 1988.1 407.96 1986.27 422.293H2091.74C2091.04 407.74 2086.18 395.978 2077.2 387.785C2068.19 379.332 2056.42 375.106 2041.41 375.106Z" fill="#FF4700"/>
<path d="M2046.51 533.575C2017.44 533.575 1993.89 524.884 1976.81 507.52C1959.28 490.156 1950.52 466.911 1950.52 438.045C1950.52 410.813 1958.8 388.046 1975.2 369.965C1991.34 351.903 2014.21 342.753 2043.06 342.753C2067.05 342.753 2087.13 350.727 2102.83 366.456C2118.75 381.946 2126.82 402.141 2126.82 426.781C2126.82 434.516 2126.14 441.792 2124.74 448.61L2124.29 451.202H1991.6C1993.43 465.276 1998.97 476.321 2008.43 484.514C2018.81 493.445 2032.2 497.891 2048.82 497.891C2070.51 497.891 2087.83 492.03 2100.06 480.288L2103.29 477.238L2115.52 508.217L2113.91 509.633C2096.59 525.581 2073.98 533.575 2046.51 533.575ZM2043.06 348.853C2016.04 348.853 1994.59 357.306 1979.58 374.191C1964.12 391.096 1956.49 412.687 1956.49 438.045C1956.49 465.037 1964.82 486.867 1980.96 503.054C1997.12 519.262 2019.05 527.236 2046.51 527.236C2071.43 527.236 2092.21 520.199 2108.13 506.344L2100.98 487.804C2087.83 498.609 2070.27 504.23 2048.82 504.23C2030.83 504.23 2016.04 499.306 2004.51 489.438C1992.97 479.59 1986.52 465.735 1985.12 448.371L1984.88 445.082H2119.44C2120.36 439.46 2120.82 433.34 2120.82 427C2120.82 404.234 2113.45 385.455 2098.66 371.141C2083.9 356.349 2065.21 348.853 2043.06 348.853ZM2094.98 425.605H1982.57L1983.05 422.076C1984.88 407.284 1991.12 395.084 2001.74 385.933C2012.12 376.763 2025.51 372.317 2041.42 372.317C2057.12 372.317 2069.82 376.783 2079.28 385.694C2088.74 394.625 2094.06 407.065 2094.74 422.315L2094.98 425.605ZM1989.74 419.265H2088.28C2087.13 407.065 2082.51 397.197 2075.13 390.159C2066.83 382.405 2055.51 378.418 2041.42 378.418C2027.12 378.418 2015.13 382.405 2005.66 390.638C1997.35 397.894 1992.06 407.523 1989.72 419.265H1989.74Z" fill="#FF5C00"/>
<path d="M2330.13 281.23V526.516H2300.12V498.806C2293.21 508.435 2284.44 515.95 2273.83 520.874C2263.21 526.058 2251.43 528.39 2238.74 528.39C2222.13 528.39 2207.12 524.642 2193.97 517.127C2180.85 509.657 2170.06 498.682 2162.81 485.429C2155.42 471.833 2151.5 456.323 2151.5 438.72C2151.5 421.117 2155.2 405.627 2162.81 392.011C2170.21 378.655 2180.59 368.089 2193.97 360.573C2207.12 353.057 2222.13 349.29 2238.74 349.29C2251.19 349.29 2262.51 351.642 2272.89 356.347C2283.29 361.032 2292.06 368.069 2298.97 377.239V280.751H2330.13V281.23ZM2271.06 492.945C2279.97 487.866 2287.19 480.274 2291.82 471.115C2296.9 461.746 2299.21 450.941 2299.21 438.959C2299.21 426.759 2296.68 416.193 2291.82 406.804C2287.11 397.762 2279.9 390.267 2271.06 385.213C2262.06 380.107 2251.85 377.512 2241.51 377.698C2231.1 377.567 2220.84 380.158 2211.75 385.213C2202.94 390.325 2195.74 397.805 2190.97 406.804C2185.89 416.193 2183.36 426.998 2183.36 438.959C2183.36 451.18 2185.89 461.726 2190.97 471.115C2196.05 480.505 2202.96 487.781 2211.75 492.945C2220.51 498.128 2230.43 500.7 2241.51 500.7C2251.87 500.775 2262.07 498.099 2271.06 492.945Z" fill="#FF4700"/>
<path d="M2238.73 531.697C2221.66 531.697 2205.96 527.71 2192.35 519.975C2178.74 512.235 2167.55 500.851 2160.04 487.101C2152.43 473.027 2148.5 456.819 2148.5 438.758C2148.5 420.676 2152.43 404.469 2160.04 390.633C2167.49 376.904 2178.7 365.583 2192.35 357.999C2205.96 350.264 2221.66 346.277 2238.73 346.277C2251.42 346.277 2263.44 348.869 2274.04 353.553C2282.37 357.301 2289.52 362.465 2295.73 369.043V277.739H2333.13V529.344H2297.13V507.296C2290.92 514.049 2283.47 519.545 2275.19 523.483C2264.35 528.866 2251.88 531.697 2238.73 531.697ZM2238.73 352.836C2222.58 352.836 2208.03 356.604 2195.34 363.641C2182.8 370.767 2172.49 381.254 2165.58 393.923C2158.42 406.821 2154.74 422.092 2154.74 438.977C2154.74 455.882 2158.42 471.153 2165.58 484.29C2172.49 496.957 2182.8 507.443 2195.34 514.572C2208.03 521.849 2222.58 525.357 2238.73 525.357C2250.97 525.357 2262.28 523.025 2272.42 518.081C2282.58 513.157 2290.89 506.12 2297.59 496.949L2303.13 489.214V523.503H2326.89V284.278H2301.97V387.085L2296.43 379.589C2289.91 370.965 2281.35 364.106 2271.51 359.634C2261.82 354.929 2250.75 352.816 2238.73 352.816V352.836ZM2241.5 503.767C2230.5 503.889 2219.66 501.053 2210.12 495.554C2200.81 490.079 2193.22 482.111 2188.19 472.548C2182.72 462.138 2179.94 450.519 2180.12 438.758C2180.12 426.079 2182.89 414.815 2188.19 404.947C2193.16 395.404 2200.78 387.5 2210.12 382.181C2219.35 376.798 2229.73 374.207 2241.5 374.207C2252.82 374.207 2263.2 376.798 2272.66 382.181C2282.13 387.563 2289.52 395.338 2294.58 405.186C2299.9 415.054 2302.43 426.318 2302.43 438.977C2302.43 451.656 2299.9 462.919 2294.58 472.788C2289.56 482.349 2281.97 490.317 2272.66 495.793C2263.2 501.176 2252.82 503.767 2241.5 503.767ZM2241.5 380.546C2231.12 380.546 2221.66 382.879 2213.35 387.823C2205.04 392.507 2198.59 399.545 2193.73 408.236C2188.89 417.148 2186.58 427.474 2186.58 438.977C2186.58 450.48 2189.13 460.806 2193.73 469.737C2198.59 478.649 2205.04 485.467 2213.35 490.391C2221.66 495.315 2231.12 497.667 2241.5 497.667C2251.66 497.667 2261.13 495.075 2269.65 490.391C2277.96 485.467 2284.66 478.649 2289.28 469.737C2293.9 460.806 2296.43 450.48 2296.43 438.977C2296.43 427.494 2294.12 417.148 2289.28 408.236C2284.82 399.693 2278.01 392.607 2269.65 387.823C2261.09 382.932 2251.37 380.42 2241.5 380.546Z" fill="#FF5C00"/>
<path d="M2392.21 283.343C2392.21 277.961 2394.06 273.256 2397.99 269.727C2401.91 266.219 2406.51 264.345 2412.29 264.345C2417.59 264.345 2422.21 266.219 2425.92 269.727C2429.61 273.256 2431.22 277.702 2431.22 283.343C2431.22 289.444 2429.37 294.368 2425.92 298.135C2424.17 299.973 2422.05 301.423 2419.7 302.391C2417.35 303.359 2414.83 303.825 2412.29 303.757C2409.65 303.829 2407.03 303.368 2404.57 302.403C2402.11 301.437 2399.87 299.985 2397.99 298.135C2394.06 294.148 2392.21 289.204 2392.21 283.343ZM2427.06 526.516H2396.13V349.768H2427.06V526.516Z" fill="#FF4700"/>
<path d="M2430.06 529.565H2392.91V346.497H2430.06V529.565ZM2399.14 523.464H2423.83V352.817H2399.14V523.464ZM2412.29 306.826C2405.84 306.826 2400.3 304.712 2395.91 300.247C2393.72 298.025 2391.99 295.383 2390.84 292.478C2389.69 289.573 2389.14 286.465 2389.22 283.342C2389.22 277.022 2391.53 271.62 2396.13 267.393C2400.52 263.406 2406.08 261.293 2412.53 261.293C2418.77 261.293 2424.07 263.406 2428.23 267.393C2432.37 271.62 2434.69 276.763 2434.69 283.122C2434.69 289.92 2432.61 295.562 2428.45 300.008C2426.38 302.211 2423.88 303.955 2421.09 305.13C2418.31 306.304 2415.31 306.882 2412.29 306.826ZM2412.29 267.632C2407.79 267.453 2403.4 269.05 2400.06 272.078C2398.48 273.492 2397.23 275.235 2396.39 277.184C2395.55 279.133 2395.15 281.241 2395.22 283.362C2395.14 285.639 2395.52 287.908 2396.35 290.031C2397.18 292.153 2398.43 294.085 2400.03 295.708C2401.62 297.332 2403.54 298.612 2405.64 299.471C2407.75 300.33 2410.01 300.75 2412.29 300.705C2414.4 300.752 2416.49 300.36 2418.44 299.554C2420.39 298.747 2422.15 297.544 2423.61 296.021C2426.71 292.636 2428.37 288.172 2428.23 283.581C2428.23 278.896 2426.84 275.128 2423.83 272.317C2422.35 270.763 2420.55 269.541 2418.56 268.734C2416.57 267.926 2414.44 267.551 2412.29 267.632Z" fill="#FF5C00"/>
<path d="M2487.29 459.373V300.687H2518.21V349.748H2581.91V379.332H2518.21V456.084C2518.21 485.429 2528.59 499.982 2549.13 499.982C2559.29 499.982 2568.3 496.693 2576.61 490.114L2586.29 514.535C2574.3 524.403 2559.29 529.566 2541.76 529.566C2523.05 529.566 2509.21 523.685 2500.44 512.183C2491.67 500.919 2487.29 483.077 2487.29 459.373Z" fill="#FF4700"/>
<path d="M2541.76 532.874C2522.13 532.874 2507.37 526.515 2497.91 514.334C2488.66 502.353 2484.06 483.813 2484.06 459.392V297.436H2521.22V346.477H2584.91V382.162H2521.22V456.122C2521.22 483.574 2530.2 496.95 2549.13 496.95C2558.59 496.95 2566.9 493.9 2574.75 487.78L2577.98 485.208L2589.99 515.51L2588.14 516.906C2575.45 527.472 2559.75 532.854 2541.76 532.854V532.874ZM2490.28 303.776V459.392C2490.28 482.397 2494.44 499.522 2502.75 510.566C2510.82 521.132 2523.99 526.515 2541.76 526.515C2557.68 526.515 2571.29 522.288 2582.36 513.616L2574.99 495.076C2567.14 500.459 2558.37 503.051 2548.91 503.051C2526.28 503.051 2514.98 487.102 2514.98 455.863V375.822H2578.68V352.857H2514.98V303.795H2490.28V303.776Z" fill="#FF5C00"/>
</g>
<defs>
<clipPath id="clip0">
<rect width="2590" height="618" fill="white"/>
</clipPath>
</defs>
</svg>
