<svg width="105" height="20" viewBox="0 0 105 20" fill="none" xmlns="http://www.w3.org/2000/svg">
<g clip-path="url(#clip0_2374_12373)">
<path d="M10.0004 19.9992C7.12444 19.9992 4.73435 19.0468 2.83013 17.1421C0.943925 15.2378 0.000545857 12.857 2.3654e-07 9.9996C-0.000545384 7.14219 0.942834 4.77038 2.83013 2.88416C4.7158 0.960851 7.10589 -0.000531479 10.0004 1.41418e-05C11.6692 -0.0134285 13.3139 0.397763 14.78 1.19492C16.2033 1.95217 17.3985 3.07587 18.242 4.44982L14.4502 6.64813C14.0343 5.90238 13.4081 5.29554 12.6497 4.90323C11.8705 4.49129 10.9869 4.28532 9.99876 4.28532C8.27679 4.28532 6.91274 4.8072 5.90661 5.85098C4.8994 6.87729 4.39579 8.26017 4.39579 9.9996C4.39579 11.739 4.89831 13.1219 5.90334 14.1482C6.91055 15.192 8.2746 15.7139 9.99549 15.7139C10.9178 15.7255 11.8285 15.5084 12.6464 15.0821C13.4056 14.6973 14.0326 14.0946 14.4469 13.3511L18.2387 15.5494C17.4102 16.9267 16.2217 18.052 14.8013 18.8043C13.3279 19.6024 11.676 20.0135 10.0004 19.9992Z" fill="#6B4CB0"/>
<path d="M34.9225 19.6145H30.1977L26.5712 13.2962H24.4818V19.6145H20.0876V0.381378H27.7809C29.612 0.381378 31.1686 1.02221 32.4508 2.30387C33.733 3.58554 34.3741 5.14246 34.3741 6.97466C34.3744 8.12763 34.0351 9.25515 33.3986 10.2165C32.7646 11.2087 31.8783 12.0146 30.8303 12.5514L34.9225 19.6145ZM27.78 4.50545H24.4818V9.45041H27.78C28.3841 9.45041 28.9024 9.21225 29.3351 8.73592C29.7677 8.2596 29.9827 7.6736 29.98 6.97793C29.98 6.28172 29.765 5.69545 29.3351 5.21912C28.9051 4.7428 28.3868 4.50491 27.78 4.50545Z" fill="#6B4CB0"/>
<path d="M41.1859 11.9777V15.384H48.8791V19.6145H36.7909V0.381378H48.74V4.61185H41.1859V7.79882H48.0525V11.9728L41.1859 11.9777Z" fill="#6B4CB0"/>
<path d="M69.6011 19.6145V0.381378H73.9969V19.6145H69.6011Z" fill="#6B4CB0"/>
<path d="M75.7156 0.384644H90.0005V4.61511H85.0556V19.6145H80.6606V4.61511H75.7156V0.384644Z" fill="#6B4CB0"/>
<path d="M91.8156 4.61511V0.384644H104.453V4.06758L98.1887 19.6178H93.5187L99.5629 4.61839L91.8156 4.61511Z" fill="#52CDB0"/>
<path d="M50.6223 0.39859H58.3156C60.9536 0.39859 63.1702 1.32396 64.9653 3.17471C66.7604 5.02545 67.658 7.30615 67.658 10.0168C67.658 12.7449 66.7604 15.0349 64.9653 16.8867C63.1877 18.7184 60.9711 19.6342 58.3156 19.6342H50.6223V0.39859ZM55.0189 15.4013H58.3172C59.8373 15.4013 61.065 14.9157 62.0001 13.9444C62.9517 12.9738 63.428 11.6643 63.4291 10.016C63.4302 8.36766 62.9539 7.06689 62.0001 6.11369C61.0655 5.12448 59.8378 4.62988 58.3172 4.62988H55.0189V15.4013Z" fill="#6B4CB0"/>
</g>
<defs>
<clipPath id="clip0_2374_12373">
<rect width="104.453" height="20" fill="white"/>
</clipPath>
</defs>
</svg>
