<svg width="134" height="50" viewBox="0 0 134 50" fill="none" xmlns="http://www.w3.org/2000/svg">
<g clip-path="url(#clip0_218_46)">
<path fill-rule="evenodd" clip-rule="evenodd" d="M25.2076 0C39.1306 0 50.4153 11.1917 50.4153 25C50.4153 38.8083 39.1306 50 25.2076 50C11.2847 50 0 38.8083 0 25C0 11.1917 11.2847 0 25.2076 0ZM25.2076 3.36945C37.2514 3.36945 47.0179 13.0555 47.0179 25C47.0179 36.9445 37.2514 46.6306 25.2076 46.6306C13.1639 46.6306 3.39743 36.9445 3.39743 25C3.39743 13.0555 13.1639 3.36945 25.2076 3.36945Z" fill="#97C11F"/>
<path fill-rule="evenodd" clip-rule="evenodd" d="M12.0625 11.9629C15.6914 8.36394 20.4496 6.56445 25.2079 6.56445V25L12.0625 11.9629Z" fill="#5C7812"/>
<path fill-rule="evenodd" clip-rule="evenodd" d="M6.61914 25C6.61914 19.9137 8.70203 15.3048 12.0624 11.9629L25.2078 25H6.61914Z" fill="#638014"/>
<path fill-rule="evenodd" clip-rule="evenodd" d="M12.0624 38.0278C8.43357 34.4288 6.61914 29.7098 6.61914 24.9907H25.2078L12.0624 38.0278Z" fill="#678815"/>
<path fill-rule="evenodd" clip-rule="evenodd" d="M25.2079 43.4263C20.0793 43.4263 15.4322 41.3605 12.0625 38.0278L25.2079 24.9907V43.4263Z" fill="#749717"/>
<path fill-rule="evenodd" clip-rule="evenodd" d="M43.7879 25C43.7879 19.9137 41.705 15.3048 38.3446 11.9629L25.1992 25H43.7879Z" fill="#97C11F"/>
<path fill-rule="evenodd" clip-rule="evenodd" d="M38.3446 38.0278C41.9735 34.4288 43.7879 29.7098 43.7879 24.9907H25.1992L38.3446 38.0278Z" fill="#8BB31E"/>
<path fill-rule="evenodd" clip-rule="evenodd" d="M25.208 43.4263C30.3366 43.4263 34.9837 41.3605 38.3534 38.0278L25.208 24.9907V43.4263Z" fill="#80A51A"/>
<path d="M60.7471 36.155C60.7471 36.4947 61.0155 36.7977 61.3951 36.7977H73.5036C73.8739 36.7977 74.1516 36.4947 74.1516 36.155V34.3004C74.1516 33.9607 73.8832 33.6578 73.5036 33.6578H64.2926V13.8267C64.2926 13.487 63.9871 13.184 63.6446 13.184H61.4043C61.034 13.184 60.7563 13.487 60.7563 13.8267V36.155H60.7471ZM78.4656 36.155C78.4656 36.4947 78.771 36.7977 79.1136 36.7977H81.3538C81.6964 36.7977 82.0018 36.4947 82.0018 36.155V13.8267C82.0018 13.487 81.6964 13.184 81.3538 13.184H79.1136C78.771 13.184 78.4656 13.487 78.4656 13.8267V36.155ZM87.4451 36.0173C87.3803 36.4855 87.6118 36.7885 88.0932 36.7885H90.3056C90.5741 36.7885 90.8796 36.5498 90.9166 36.3203L93.3606 21.245C93.3976 21.245 93.4624 21.245 93.4994 21.245L99.6555 36.761C99.7203 36.9629 99.961 37.1282 100.229 37.1282H100.84C101.146 37.1282 101.35 36.9629 101.414 36.761L107.533 21.245C107.533 21.245 107.598 21.245 107.635 21.245L110.153 36.3203C110.218 36.559 110.496 36.7885 110.801 36.7885H113.014C113.486 36.7885 113.727 36.4855 113.625 36.0173L109.44 13.3585C109.376 13.0922 109.098 12.8535 108.83 12.8535H108.283C108.043 12.8535 107.774 13.0188 107.709 13.2208L100.637 30.4536H100.498L93.3883 13.2208C93.3235 13.0188 93.018 12.8535 92.8144 12.8535H92.2682C91.9997 12.8535 91.722 13.0922 91.6572 13.3585L87.4451 36.0173ZM119.105 36.155C119.105 36.4947 119.374 36.7977 119.753 36.7977H133.352C133.722 36.7977 134 36.4947 134 36.155V34.3004C134 33.9607 133.732 33.6578 133.352 33.6578H122.604V26.4047H131.686C132.028 26.4047 132.334 26.1385 132.334 25.7621V23.8708C132.334 23.5311 132.028 23.2281 131.686 23.2281H122.604V16.3515H133.352C133.722 16.3515 134 16.0485 134 15.7088V13.8175C134 13.4778 133.732 13.1749 133.352 13.1749H119.753C119.383 13.1749 119.105 13.4778 119.105 13.8175V36.1458V36.155Z" fill="#97C11F"/>
</g>
<defs>
<clipPath id="clip0_218_46">
<rect width="134" height="50" fill="white"/>
</clipPath>
</defs>
</svg>
