<svg width="367" height="66" viewBox="0 0 367 66" fill="none" xmlns="http://www.w3.org/2000/svg">
<path fill-rule="evenodd" clip-rule="evenodd" d="M46.7137 1.1543C50.1517 1.1543 52.0949 3.47667 52.0949 6.69803V45.0546C52.0949 47.7516 50.1517 49.6994 47.3864 49.6994C44.6958 49.6994 42.7525 47.7516 42.7525 45.0546V16.6618L31.6165 34.4916C30.1964 36.739 28.7764 37.4882 26.6837 37.4882C24.6658 37.4882 23.171 36.739 21.751 34.4916L10.6896 16.8116V45.0546C10.6896 47.7516 8.74643 49.6994 5.98109 49.6994C3.2905 49.6994 1.34729 47.7516 1.34729 45.0546V7.37226C1.34729 3.55158 3.58945 1.1543 7.55061 1.1543C11.0633 1.1543 12.8571 3.02718 15.0245 6.47328L27.2816 26.5506L40.5104 5.04989C42.0052 2.6526 43.5747 1.1543 46.7137 1.1543ZM59.6655 31.495C59.6655 21.0818 67.9615 12.6163 78.2754 12.6163C88.6641 12.6163 96.9601 21.0818 96.9601 31.495C96.9601 41.9831 88.6641 50.4485 78.2754 50.4485C67.9615 50.4485 59.6655 41.9831 59.6655 31.495ZM87.7673 31.495C87.7673 25.7265 83.8061 21.1567 78.3502 21.1567C72.8195 21.1567 68.7836 25.7265 68.7836 31.495C68.7836 37.2635 72.8195 41.9082 78.3502 41.9082C83.8061 41.9082 87.7673 37.2635 87.7673 31.495ZM123.29 12.6163C131.586 12.6163 136.967 18.3848 136.967 27.7492V45.1296C136.967 47.8265 135.099 49.6994 132.408 49.6994C129.718 49.6994 127.774 47.8265 127.774 45.1296V29.0977C127.774 24.2282 124.934 21.1567 120.525 21.1567C116.04 21.1567 113.275 24.2282 113.275 29.0977V45.1296C113.275 47.8265 111.407 49.6994 108.716 49.6994C106.025 49.6994 104.157 47.8265 104.157 45.1296V17.9353C104.157 15.2384 106.025 13.3655 108.641 13.3655C111.182 13.3655 112.901 14.8638 113.2 17.1862C115.443 14.2645 118.955 12.6163 123.29 12.6163ZM179.815 28.4984C179.815 31.7197 177.946 33.8173 174.433 33.8173H153.208C154.104 38.8367 157.916 42.4326 163.372 42.4326C168.753 42.4326 170.696 39.8106 173.238 39.8106C175.405 39.8106 176.9 41.159 176.9 43.3316C176.9 47.377 170.846 50.4485 163.073 50.4485C151.937 50.4485 143.865 41.9831 143.865 31.495C143.865 21.0818 151.264 12.6163 162.326 12.6163C173.537 12.6163 179.815 20.7821 179.815 28.4984ZM162.027 20.3326C157.542 20.3326 154.403 23.479 153.357 28.0489H170.622C169.725 23.0296 166.362 20.3326 162.027 20.3326ZM213.17 13.2906C216.16 13.2906 218.327 15.538 216.907 19.4336L203.977 54.0445C201.137 61.8357 196.653 65.1319 190.674 65.1319C185.741 65.1319 181.406 62.8096 181.406 59.2136C181.406 57.2658 182.826 55.3929 185.293 55.3929C187.31 55.3929 188.73 56.5916 191.197 56.5916C193.514 56.5916 194.934 55.0184 196.429 50.898L196.728 49.999L182.976 20.0329C181.107 15.9875 183.499 13.2906 186.862 13.2906C189.702 13.2906 190.674 15.0885 191.87 17.7855L200.838 38.537L208.387 17.5607C209.358 14.714 210.629 13.2906 213.17 13.2906Z" fill="#9EDC15" stroke="#9EDC15" stroke-width="1.1"/>
<path fill-rule="evenodd" clip-rule="evenodd" d="M265.958 12.6162C274.254 12.6162 279.71 18.1599 279.71 27.7491V45.1294C279.71 47.8264 277.766 49.6993 275.15 49.6993C272.46 49.6993 270.517 47.8264 270.517 45.1294V29.0976C270.517 24.2281 267.826 21.1566 263.491 21.1566C259.156 21.1566 256.466 24.2281 256.466 29.0976V45.1294C256.466 47.8264 254.597 49.6993 251.907 49.6993C249.216 49.6993 247.273 47.8264 247.273 45.1294V29.0976C247.273 24.2281 244.582 21.1566 240.247 21.1566C235.913 21.1566 233.222 24.2281 233.222 29.0976V45.1294C233.222 47.8264 231.354 49.6993 228.663 49.6993C225.972 49.6993 224.104 47.8264 224.104 45.1294V17.9352C224.104 15.2382 225.972 13.3654 228.588 13.3654C231.204 13.3654 232.998 15.0135 233.222 17.4857C235.389 14.4891 238.827 12.6162 243.088 12.6162C248.319 12.6162 252.28 14.9386 254.523 19.1338C256.615 15.6128 260.277 12.6162 265.958 12.6162Z" fill="#4C4C4C" stroke="#4C4C4C" stroke-width="1.1"/>
<path fill-rule="evenodd" clip-rule="evenodd" d="M319.343 13.3654C322.034 13.3654 323.902 15.2382 323.902 17.9352V45.1294C323.902 47.8264 322.034 49.6993 319.343 49.6993C316.727 49.6993 314.859 47.9762 314.709 45.504C312.168 48.5755 308.506 50.4484 303.797 50.4484C294.306 50.4484 286.607 42.7321 286.607 31.4949C286.607 20.7071 293.857 12.6162 303.797 12.6162C308.506 12.6162 312.168 14.3393 314.709 17.3359C315.008 14.9386 316.802 13.3654 319.343 13.3654ZM305.292 41.9081C310.748 41.9081 314.709 37.2633 314.709 31.4949C314.709 25.7264 310.748 21.1566 305.292 21.1566C299.761 21.1566 295.726 25.7264 295.726 31.4949C295.726 37.2633 299.761 41.9081 305.292 41.9081Z" fill="#4C4C4C" stroke="#4C4C4C" stroke-width="1.1"/>
<path fill-rule="evenodd" clip-rule="evenodd" d="M352.624 12.6162C360.92 12.6162 366.301 18.3847 366.301 27.7491V45.1294C366.301 47.8264 364.432 49.6993 361.742 49.6993C359.051 49.6993 357.108 47.8264 357.108 45.1294V29.0976C357.108 24.2281 354.268 21.1566 349.858 21.1566C345.374 21.1566 342.609 24.2281 342.609 29.0976V45.1294C342.609 47.8264 340.74 49.6993 338.05 49.6993C335.359 49.6993 333.491 47.8264 333.491 45.1294V17.9352C333.491 15.2382 335.359 13.3654 337.975 13.3654C340.516 13.3654 342.235 14.8637 342.534 17.186C344.776 14.2643 348.289 12.6162 352.624 12.6162Z" fill="#4C4C4C" stroke="#4C4C4C" stroke-width="1.1"/>
</svg>
