<svg width="128" height="34" viewBox="0 0 128 34" fill="none" xmlns="http://www.w3.org/2000/svg">
<path fill-rule="evenodd" clip-rule="evenodd" d="M53.2957 19.25H59.8519V21.1783H57.6319V27.4366H55.5157V21.1783H53.2957V19.25ZM93.0885 20.3473L94.0728 21.7964C95.004 21.1732 96.0919 20.9143 96.8536 21.0381C97.923 21.2123 97.7483 22.2704 96.9415 22.3272C96.0337 22.3911 94.7004 22.3706 94.7004 22.3706V24.2249C94.7004 24.2249 95.4797 24.2032 96.7568 24.2249C98.0339 24.2468 98.2072 25.5151 96.7351 25.6233C95.263 25.7313 94.0511 24.7732 94.0511 24.7732L92.9903 26.3102C92.9903 26.3102 94.203 27.5441 96.4971 27.5656C100.557 27.6039 100.895 23.8644 98.3371 23.1497C98.3371 23.1497 99.8254 22.6703 99.7441 21.245C99.6573 19.7223 98.0625 19.0384 96.4805 19.0725C95.1835 19.1004 93.9498 19.6089 93.0885 20.3473ZM109.263 27.4263V19.25H111.379V24.0218L114.412 19.25H114.674H116.528H116.79V27.4263H114.674V22.222L111.427 27.4263H111.379H110.689H109.263V27.4263ZM111.304 16.8477H114.807V18.4471H111.304V16.8477ZM60.387 19.25L63.2474 25.0917C62.7424 25.6768 61.9056 25.7537 61.2093 25.1839L60.3239 26.8148C62.0537 28.2124 64.3957 27.7777 65.3824 25.692L68.537 19.25H66.1661L64.4518 22.9983L62.7579 19.25H60.387V19.25ZM118.063 27.4263V19.25H119.002H120.18H121.023L122.727 23.7945L124.432 19.25H125.275H126.452H127.391V27.4263H125.275V22.1775L123.163 27.4263H122.902H122.552H122.291L120.18 22.1775V27.4263H118.063V27.4263ZM99.9336 27.4263L103.088 19.25H103.536H105.188H105.637L108.791 27.4263H106.42L105.988 26.1988H102.737L102.304 27.4263H99.9336ZM105.307 24.2704L104.363 21.5916L103.417 24.2704H105.307ZM88.4679 19.0617C90.8898 19.0617 92.8536 20.9765 92.8536 23.3378C92.8536 25.6998 90.8898 27.6147 88.4679 27.6147C86.046 27.6147 84.0823 25.6998 84.0823 23.3378C84.0823 20.9765 86.046 19.0617 88.4679 19.0617ZM88.4679 21.0225C87.2201 21.0225 86.2086 22.0596 86.2086 23.3378C86.2086 24.6168 87.2201 25.6536 88.4679 25.6536C89.7157 25.6536 90.7272 24.6168 90.7272 23.3378C90.7272 22.0596 89.7157 21.0225 88.4679 21.0225ZM76.7587 19.25V27.4263H77.5222H78.875H81.0351C82.5186 27.4263 83.7213 26.2144 83.7213 24.7196C83.7213 23.225 82.5186 22.0133 81.0351 22.0133H78.875V21.1783H82.994V19.25H78.875H77.4323H76.7587ZM78.875 25.6236V23.816H80.6803C81.1757 23.816 81.577 24.2206 81.577 24.7196C81.577 25.2188 81.1757 25.6236 80.6803 25.6236H78.875V25.6236ZM68.9687 27.4263V19.25H69.7321H71.085H73.2451C74.7285 19.25 75.9312 20.4618 75.9312 21.9566C75.9312 23.4514 74.7285 24.663 73.2451 24.663H71.085V27.4263H68.9687V27.4263ZM71.085 21.0527V22.8603H72.8902C73.3856 22.8603 73.787 22.4556 73.787 21.9566C73.787 21.4574 73.3856 21.0527 72.8902 21.0527H71.085Z" fill="#0078BF"/>
<path fill-rule="evenodd" clip-rule="evenodd" d="M4.57986 0.927734H45.5469C46.6359 0.927734 47.6267 1.37363 48.345 2.09163L48.347 2.09383C49.065 2.81203 49.5111 3.80243 49.5111 4.89183V29.806C49.5111 30.8941 49.0653 31.8849 48.347 32.6041L48.346 32.6051L48.3446 32.6062C47.6256 33.3246 46.6348 33.7703 45.5469 33.7703H4.57986C3.48956 33.7703 2.49836 33.3246 1.78006 32.6062C1.06216 31.8882 0.615967 30.8969 0.615967 29.806V4.89183C0.615967 3.80283 1.06216 2.81203 1.78006 2.09383V2.09163C2.49806 1.37363 3.48956 0.927734 4.57986 0.927734V0.927734ZM45.5469 2.08763H4.57986C3.80956 2.08763 3.10856 2.40343 2.59996 2.91173L2.59896 2.91053C2.09116 3.41883 1.77597 4.12063 1.77597 4.89183V29.806C1.77597 30.5765 2.09186 31.2779 2.59996 31.7861C3.10856 32.2947 3.80956 32.6103 4.57986 32.6103H45.5469C46.3189 32.6103 47.0196 32.2954 47.5268 31.7883L47.5292 31.7861C48.0363 31.2791 48.3512 30.5782 48.3512 29.806V4.89183C48.3512 4.12043 48.036 3.41883 47.5281 2.91053C47.0196 2.40283 46.3182 2.08763 45.5469 2.08763Z" fill="#0078BF"/>
<path fill-rule="evenodd" clip-rule="evenodd" d="M9.96829 19.248H40.1587C42.3883 19.248 44.2126 21.0721 44.2126 23.3016V23.3018C44.2126 25.5315 42.3883 27.3555 40.1587 27.3555H9.96829C7.73899 27.3555 5.91479 25.5315 5.91479 23.3018V23.3016C5.91479 21.0721 7.73899 19.248 9.96829 19.248V19.248Z" fill="url(#paint0_linear)"/>
<path fill-rule="evenodd" clip-rule="evenodd" d="M9.93852 20.6689H32.9913C34.4396 20.6689 35.6247 21.8537 35.6247 23.302C35.6247 24.7503 34.4396 25.9351 32.9913 25.9351H9.93852C8.49012 25.9351 7.30542 24.7503 7.30542 23.302C7.30542 21.8537 8.49012 20.6689 9.93852 20.6689Z" fill="url(#paint1_linear)"/>
<path fill-rule="evenodd" clip-rule="evenodd" d="M9.84218 21.1396H33.0877C33.6813 21.1396 34.1667 21.6253 34.1667 22.2189C34.1667 22.8125 33.6813 23.298 33.0877 23.298H9.84218C9.24858 23.298 8.76318 22.8125 8.76318 22.2189C8.76318 21.6253 9.24858 21.1396 9.84218 21.1396Z" fill="url(#paint2_linear)"/>
<defs>
<linearGradient id="paint0_linear" x1="25.3458" y1="31.3806" x2="25.6777" y2="40.8839" gradientUnits="userSpaceOnUse">
<stop stop-color="#0D5190"/>
<stop offset="1" stop-color="#00A0E3"/>
</linearGradient>
<linearGradient id="paint1_linear" x1="21.465" y1="9.14236" x2="21.465" y2="14.4086" gradientUnits="userSpaceOnUse">
<stop stop-color="#B0CB1F"/>
<stop offset="1" stop-color="#009846"/>
</linearGradient>
<linearGradient id="paint2_linear" x1="21.4649" y1="9.51714" x2="21.4649" y2="11.6755" gradientUnits="userSpaceOnUse">
<stop stop-color="#FEFEFE"/>
<stop offset="1" stop-color="#5DB139"/>
</linearGradient>
</defs>
</svg>
