<svg width="144" height="60" viewBox="0 0 144 60" fill="none" xmlns="http://www.w3.org/2000/svg">
<g clip-path="url(#clip0)">
<path d="M15.1837 23H0L7.59184 27.898H23.0204L15.1837 23Z" fill="#42B28E"/>
<path d="M15.1837 32.551H0L7.59184 37.449H23.0204L15.1837 32.551Z" fill="#42B28E"/>
<path d="M15.1837 32.551H0L7.59184 27.6531H23.0204L15.1837 32.551Z" fill="#307AB2"/>
<path d="M54.5063 23.6046H56.0353L62.8127 37.051H60.5897L58.5728 33.0888H52.1315L50.223 37.051H48L54.5063 23.6046ZM57.6836 31.3853L55.2437 26.5427L52.9773 31.3853H57.6836Z" fill="#221F1F"/>
<path d="M75.8274 23.6812H78.4516L72.8562 29.9785V37.051H70.6332V29.9785L65.0377 23.6812H67.662L71.7176 28.2941L75.8274 23.6812Z" fill="#221F1F"/>
<path d="M94.4158 23.6812H96.4328V37.051H94.2531V26.648L89.5903 31.816H89.189L84.4828 26.648V37.051H82.314V23.6812H84.3527L89.3951 29.1746L94.4158 23.6812Z" fill="#221F1F"/>
<path d="M101.954 23.6812H104.123V37.051H101.954V23.6812Z" fill="#221F1F"/>
<path d="M115.347 30.4666H122.983V36.1322C121.117 36.8468 119.267 37.2041 117.431 37.2041C114.922 37.2041 112.916 36.5597 111.412 35.2709C109.916 33.9757 109.167 32.3806 109.167 30.4857C109.167 28.4887 109.945 26.8267 111.499 25.4996C113.053 24.1725 115.001 23.5089 117.344 23.5089C118.197 23.5089 119.006 23.5919 119.773 23.7578C120.539 23.9173 121.508 24.214 122.679 24.6478V26.6002C120.872 25.675 119.079 25.2125 117.3 25.2125C115.645 25.2125 114.25 25.7101 113.115 26.7054C111.98 27.7007 111.412 28.9226 111.412 30.3709C111.412 31.8894 111.98 33.1303 113.115 34.0937C114.25 35.0571 115.71 35.5388 117.496 35.5388C118.363 35.5388 119.4 35.3634 120.608 35.0125L120.814 34.9551V32.1701H115.347V30.4666Z" fill="#221F1F"/>
<path d="M135.813 23.4898C138.155 23.4898 140.103 24.1438 141.658 25.4517C143.219 26.7597 144 28.3994 144 30.3709C144 32.3424 143.212 33.9757 141.636 35.2709C140.067 36.5597 138.086 37.2041 135.694 37.2041C133.409 37.2041 131.504 36.5597 129.979 35.2709C128.461 33.9757 127.702 32.3551 127.702 30.4091C127.702 28.4121 128.468 26.7597 130.001 25.4517C131.533 24.1438 133.471 23.4898 135.813 23.4898ZM135.9 25.3082C134.165 25.3082 132.737 25.7867 131.616 26.7437C130.503 27.7007 129.946 28.9226 129.946 30.4091C129.946 31.8511 130.507 33.0506 131.627 34.0076C132.748 34.9646 134.15 35.4431 135.835 35.4431C137.526 35.4431 138.936 34.9551 140.064 33.9789C141.199 33.0027 141.766 31.7873 141.766 30.3326C141.766 28.9162 141.199 27.7263 140.064 26.7628C138.936 25.7931 137.548 25.3082 135.9 25.3082Z" fill="#221F1F"/>
<path d="M34.7755 28.1429L35.5102 26.4286H42.6122L33.0612 34.7551V36.7143H45.7959V36.2245V35L43.8367 33.0408L43.3469 35.2449H35.5102V35V34.2653L45.3061 26.1837V24.9592H33.0612V26.1837L34.7755 28.1429Z" fill="#221F1F"/>
</g>
<defs>
<clipPath id="clip0">
<rect width="144" height="14.449" fill="white" transform="translate(0 23)"/>
</clipPath>
</defs>
</svg>
