<svg width="213" height="52" viewBox="0 0 213 52" fill="none" xmlns="http://www.w3.org/2000/svg">
<path fill-rule="evenodd" clip-rule="evenodd" d="M154.486 14.1058C153.996 15.7923 153.491 17.4777 153.001 19.1655C151.842 23.1632 150.686 27.1616 149.531 31.1609C149.164 32.4298 148.605 32.8426 147.281 32.8426H145.445C144.343 32.8426 143.754 32.4249 143.437 31.3453C142.458 27.9953 141.487 24.6393 140.511 21.2869C139.858 19.0438 139.203 16.8015 138.545 14.5601C138.509 14.3956 138.426 14.2448 138.307 14.1253V14.7579V30.8788C138.307 32.2698 137.731 32.8475 136.348 32.8487C135.451 32.8487 134.553 32.856 133.655 32.8487C132.592 32.8377 131.941 32.1929 131.941 31.1279C131.936 23.556 131.936 15.9865 131.941 8.4195C131.941 7.38264 132.584 6.72681 133.61 6.72193C135.792 6.70972 137.974 6.70972 140.156 6.72193C141.084 6.72193 141.687 7.17991 141.957 8.15571C142.754 11.0343 143.523 13.9201 144.3 16.8036C144.998 19.3914 145.693 21.9793 146.423 24.6906C146.515 24.4243 146.578 24.2729 146.62 24.1153C148.007 18.9559 149.395 13.7964 150.782 8.63689C151.209 7.04923 151.631 6.71826 153.263 6.71826H159.139C160.324 6.71826 160.946 7.34112 160.947 8.52697V31.0522C160.947 32.2258 160.312 32.845 159.126 32.8499H156.433C155.208 32.8499 154.584 32.2393 154.584 31.018V14.775V14.1253L154.486 14.1058Z" fill="#4B5959"/>
<path fill-rule="evenodd" clip-rule="evenodd" d="M120.559 16.1429C119.049 19.0902 117.539 22.0375 116.03 24.9849C114.881 27.2288 113.733 29.4739 112.588 31.7202C112.187 32.5067 111.579 32.878 110.672 32.8536C109.225 32.8145 107.775 32.8462 106.327 32.8426C105.178 32.8426 104.527 32.2136 104.525 31.0876V8.43782C104.525 7.36554 105.166 6.72803 106.232 6.71338C107.19 6.70239 108.149 6.70605 109.109 6.71338C110.257 6.7207 110.886 7.34478 110.887 8.48911V23.1444V23.8003L110.986 23.8393C111.103 23.6427 111.231 23.451 111.332 23.2482C113.921 18.2007 116.519 13.1581 119.082 8.09708C119.571 7.1335 120.21 6.64132 121.33 6.69994C122.612 6.76589 123.901 6.71338 125.185 6.71582C126.423 6.71582 127.042 7.32646 127.042 8.53674V31.0082C127.042 32.2295 126.43 32.8475 125.206 32.8524H122.452C121.314 32.845 120.682 32.2112 120.682 31.0656V16.8402V16.177L120.559 16.1429Z" fill="#4B5959"/>
<path fill-rule="evenodd" clip-rule="evenodd" d="M172.252 27.3456H172.971H184.967C186.152 27.3456 186.77 27.9685 186.777 29.1519C186.777 29.8236 186.786 30.4953 186.777 31.167C186.759 32.1636 186.123 32.8365 185.139 32.8377C179.263 32.8467 173.387 32.8467 167.511 32.8377C166.517 32.8377 165.851 32.1782 165.85 31.1914C165.843 23.5804 165.843 15.9678 165.85 8.35356C165.85 7.3631 166.51 6.70972 167.509 6.7085C173.384 6.70036 179.26 6.70036 185.136 6.7085C186.128 6.7085 186.759 7.37409 186.777 8.3731C186.788 9.0448 186.777 9.7165 186.777 10.3882C186.77 11.5728 186.152 12.1957 184.968 12.1969H172.972H172.256V17.082H184.834C186.186 17.082 186.773 17.6633 186.775 19.0031V20.835C186.764 21.9341 186.131 22.5729 185.021 22.5741C180.962 22.579 176.903 22.579 172.843 22.5741H172.255L172.252 27.3456Z" fill="#4B5959"/>
<path fill-rule="evenodd" clip-rule="evenodd" d="M89.5543 6.70972H91.7577C92.6391 6.71704 93.1361 7.04313 93.4397 7.85161C96.2536 15.3421 99.063 22.8363 101.868 30.3341C102.442 31.8692 101.732 32.8414 100.081 32.8426H97.2651C96.1548 32.8426 95.7153 32.536 95.3457 31.5151C94.976 30.4941 94.6002 29.4951 94.2537 28.4753C94.1521 28.1761 94.0089 28.0686 93.6918 28.0698C90.9171 28.0821 88.1424 28.0821 85.3677 28.0698C85.0519 28.0698 84.9025 28.1627 84.7997 28.4668C84.4398 29.5244 84.0518 30.5722 83.6674 31.6213C83.3479 32.497 82.8582 32.8426 81.9169 32.8426C80.8359 32.8426 79.755 32.8536 78.6753 32.8426C77.4512 32.8279 76.68 31.8472 77.084 30.698C78.1196 27.7902 79.214 24.9031 80.2949 22.0111C82.0438 17.3303 83.7984 12.6508 85.5587 7.97252C85.91 7.03458 86.3788 6.7146 87.4083 6.71094C88.1281 6.7085 88.8406 6.70972 89.5543 6.70972ZM89.602 14.2047H89.4539L86.702 22.5546H92.3575L89.602 14.2047Z" fill="#4B5959"/>
<path fill-rule="evenodd" clip-rule="evenodd" d="M198.035 24.5367V30.9826C198.035 32.2368 197.423 32.8401 196.152 32.8426C195.234 32.8426 194.316 32.8499 193.398 32.8426C192.332 32.8328 191.674 32.1929 191.673 31.1328C191.668 23.5609 191.668 15.989 191.673 8.41707C191.673 7.35211 192.321 6.70728 193.394 6.70728C196.658 6.70728 199.923 6.66942 203.187 6.73048C204.369 6.75281 205.544 6.90227 206.693 7.17625C210.611 8.11419 212.728 10.6483 212.927 14.6541C212.999 15.912 212.905 17.174 212.645 18.4071C211.911 21.7302 209.585 23.484 206.376 24.1398C205.108 24.3987 203.791 24.4634 202.491 24.5184C201.028 24.5855 199.563 24.5367 198.035 24.5367ZM198.08 12.2116V19.0336C199.898 19.0336 201.672 19.0849 203.441 19.019C205.21 18.953 206.603 17.4154 206.603 15.6202C206.603 13.8249 205.221 12.2885 203.436 12.225C201.651 12.1615 199.894 12.2128 198.08 12.2128V12.2116Z" fill="#4B5959"/>
<path fill-rule="evenodd" clip-rule="evenodd" d="M71.6965 18.5634C72.3979 18.9762 73.1287 19.3108 73.7457 19.7847C75.3591 21.0389 75.8989 22.7817 75.8096 24.7577C75.6186 29.0065 72.2596 31.7923 68.2836 32.5739C65.7126 33.089 63.0539 32.9631 60.5433 32.2075C57.3606 31.2537 55.1963 29.2764 54.4104 25.9472C54.1203 24.726 54.7605 23.8247 56.0153 23.8137C57.0754 23.8051 58.1367 23.8137 59.198 23.8137C60.088 23.8137 60.5544 24.141 60.8788 24.9556C61.9278 27.5984 65.1804 28.6878 67.6556 27.221C68.6349 26.6422 69.1245 25.7873 69.0744 24.638C69.0242 23.4888 68.4953 22.5484 67.4083 22.1564C66.5661 21.8523 65.6309 21.7302 64.7287 21.6813C63.2597 21.6019 62.7394 21.1501 62.726 19.687C62.7165 19.2601 62.7333 18.8331 62.7762 18.4083C62.868 17.6108 63.4519 17.1138 64.2647 17.0783C64.8768 17.0527 65.4889 17.071 66.0862 16.9562C67.6654 16.6533 68.548 15.6128 68.4672 14.2511C68.3913 12.9639 67.2247 11.8 65.7484 11.7438C64.8535 11.7096 63.9305 11.8745 63.0553 12.0809C62.3428 12.2482 61.8005 12.7648 61.5043 13.4548C61.0795 14.4453 60.3695 14.8642 59.2849 14.7713C58.5149 14.7054 57.7352 14.7591 56.9591 14.7579C55.5415 14.7579 54.8376 13.8566 55.2012 12.4644C55.7068 10.5286 56.8991 9.10707 58.6092 8.11051C60.1394 7.21898 61.8385 6.86603 63.5755 6.74024C65.637 6.59002 67.6911 6.69261 69.6889 7.3008C71.0158 7.70504 72.213 8.32545 73.1936 9.33178C75.8683 12.076 75.3236 16.3773 72.0441 18.3534L71.6965 18.5634Z" fill="#4B5959"/>
<path fill-rule="evenodd" clip-rule="evenodd" d="M116.499 5.49575C114.763 5.46155 113.31 5.21852 111.998 4.42713C111.237 3.96915 110.576 3.39637 110.208 2.56835C109.839 1.74032 110.086 0.895201 110.784 0.410355C111.48 -0.0917313 112.446 0.0265291 112.999 0.681478C114.326 2.1751 115.99 2.3131 117.745 1.83192C118.368 1.66094 118.932 1.17365 119.446 0.738878C119.961 0.304104 120.511 -0.0146495 121.214 0.168542C121.849 0.311646 122.341 0.813059 122.471 1.44966C122.621 2.06763 122.404 2.60987 122.033 3.09838C120.997 4.46377 119.543 5.07807 117.911 5.35042C117.37 5.44323 116.818 5.46644 116.499 5.49575Z" fill="#4B5959"/>
<path d="M54.5452 42.6018H58.3008C60.2594 42.6018 61.6721 43.3675 61.6721 45.4742C61.6721 47.3892 60.4369 48.2746 58.6607 48.2746H56.7768V51.1239H54.5452V42.6018ZM58.0364 46.5514C58.8039 46.5514 59.5127 46.4916 59.5127 45.4987C59.5127 44.6731 58.9974 44.4215 58.2176 44.4215H56.7768V46.5526L58.0364 46.5514Z" fill="#7D8888"/>
<path d="M66.7693 51.3278C64.1301 51.3278 62.4849 49.4605 62.4849 46.8628C62.4849 44.3372 64.1766 42.3978 66.7436 42.3978C69.2874 42.3978 70.9302 44.1333 70.9302 46.8738C70.9326 49.3774 69.3608 51.3278 66.7693 51.3278ZM66.7216 44.2102C65.522 44.2102 64.763 45.2275 64.763 46.8433C64.763 48.5067 65.4975 49.5008 66.7302 49.5008C67.9421 49.5008 68.6496 48.5079 68.6496 46.8079C68.6533 45.1872 67.9213 44.2102 66.7216 44.2102Z" fill="#7D8888"/>
<path d="M76.2711 51.1251H72.1801V42.6018H78.9128V44.3971H74.3835V45.451H76.3862C78.3779 45.451 79.6375 46.3365 79.6375 48.2514C79.6424 50.3166 78.395 51.1251 76.2711 51.1251ZM75.9112 47.1877H74.3749V49.3188H75.9663C76.9138 49.3188 77.3814 49.0672 77.3814 48.2417C77.3863 47.294 76.6788 47.1865 75.9112 47.1865V47.1877Z" fill="#7D8888"/>
<path d="M84.8609 51.3278C82.2217 51.3278 80.5764 49.4605 80.5764 46.8628C80.5764 44.3372 82.2682 42.3978 84.8352 42.3978C87.3789 42.3978 89.0217 44.1333 89.0217 46.8738C89.023 49.3774 87.4524 51.3278 84.8609 51.3278ZM84.8132 44.2065C83.6135 44.2065 82.8545 45.2239 82.8545 46.8396C82.8545 48.503 83.589 49.4971 84.8217 49.4971C86.0336 49.4971 86.7412 48.5042 86.7412 46.8042C86.7436 45.1872 86.0116 44.2102 84.8119 44.2102L84.8132 44.2065Z" fill="#7D8888"/>
<path d="M97.0607 44.4936H94.5292V51.1251H92.2731V44.4936H89.7416V42.6018H97.0595L97.0607 44.4936Z" fill="#7D8888"/>
<path d="M105.888 51.3278C103.249 51.3278 101.603 49.4605 101.603 46.8628C101.603 44.3372 103.295 42.3978 105.862 42.3978C108.406 42.3978 110.049 44.1333 110.049 46.8738C110.05 49.3774 108.482 51.3278 105.888 51.3278ZM105.84 44.2065C104.64 44.2065 103.882 45.2239 103.882 46.8396C103.882 48.503 104.616 49.4971 105.849 49.4971C107.061 49.4971 107.768 48.5042 107.768 46.8042C107.774 45.1872 107.042 44.2102 105.843 44.2102L105.84 44.2065Z" fill="#7D8888"/>
<path d="M118.679 51.1251H116.435V47.6054H113.544V51.1239H111.3V42.6018H113.544V45.6416H116.435V42.6018H118.679V51.1251Z" fill="#7D8888"/>
<path d="M127.616 51.1251H125.372V44.4936H123.477L123.37 47.8093C123.285 50.2152 122.218 51.2924 120.754 51.2924C120.357 51.2876 119.963 51.2355 119.579 51.1373V49.3542C119.791 49.4269 120.014 49.4633 120.238 49.4617C120.743 49.4617 121.15 49.2468 121.198 47.4991L121.343 42.6042H127.618L127.616 51.1251Z" fill="#7D8888"/>
<path d="M136.961 51.1251H134.655L134.103 49.5692H131.152L130.587 51.1251H128.308L131.512 42.5908H133.766L136.961 51.1251ZM132.643 44.9845L131.663 47.9644H133.607L132.643 44.9845Z" fill="#7D8888"/>
<path d="M145.047 51.1251H142.875L143.031 45.451L140.115 51.1251H137.667V42.6018H139.838L139.754 48.2759L142.67 42.6018H145.046L145.047 51.1251ZM141.52 42.1841C140.393 42.1841 139.324 41.6578 139.324 40.3766H140.356C140.464 40.8432 140.956 41.0703 141.52 41.0703C142.084 41.0703 142.577 40.8432 142.684 40.3766H143.714C143.714 41.6565 142.648 42.1841 141.52 42.1841Z" fill="#7D8888"/>
<path d="M153.984 51.1251H151.74V47.6054H148.855V51.1239H146.611V42.6018H148.855V45.6416H151.747V42.6018H153.99L153.984 51.1251Z" fill="#7D8888"/>
<path d="M162.717 51.3278C160.341 51.3278 158.938 50.203 158.902 48.2746H161.145C161.145 49.2797 161.841 49.618 162.705 49.618C163.46 49.618 163.989 49.1869 163.989 48.5885C163.989 47.8826 163.425 47.4991 162.61 47.4991H161.818V45.942C162.07 45.9664 162.357 45.9664 162.465 45.9664C163.425 45.9664 163.772 45.5231 163.772 45.0089C163.772 44.5424 163.328 44.0991 162.656 44.0991C161.792 44.0991 161.309 44.4581 161.264 45.1408H159.138C159.173 43.37 160.47 42.4003 162.605 42.4003C164.644 42.4003 165.94 43.2857 165.94 44.7708C165.94 45.5035 165.376 46.2424 164.729 46.4806C165.646 46.6666 166.295 47.4864 166.264 48.4199C166.268 50.1554 164.721 51.3278 162.717 51.3278Z" fill="#7D8888"/>
<path d="M175.206 51.1251H172.902L172.35 49.5692H169.399L168.834 51.1251H166.556L169.76 42.5908H172.015L175.206 51.1251ZM170.89 44.9845L169.91 47.9644H171.854L170.89 44.9845Z" fill="#7D8888"/>
<path d="M183.291 51.1251H181.12L181.275 45.451L178.357 51.1251H175.909V42.6018H178.08L177.996 48.2759L180.912 42.6018H183.288L183.291 51.1251ZM179.765 42.1841C178.637 42.1841 177.569 41.6578 177.569 40.3766H178.602C178.709 40.8432 179.202 41.0703 179.766 41.0703C180.33 41.0703 180.822 40.8432 180.93 40.3766H181.962C181.959 41.6565 180.892 42.1841 179.765 42.1841Z" fill="#7D8888"/>
<path d="M184.875 42.6018H188.114L189.674 48.5152L191.265 42.6018H194.421V51.1239H192.312L192.42 44.6242L190.513 51.1239H188.799L186.903 44.6365L186.975 51.1239H184.875V42.6018Z" fill="#7D8888"/>
<path d="M199.979 51.3278C197.34 51.3278 195.694 49.4605 195.694 46.8628C195.694 44.3372 197.386 42.3978 199.953 42.3978C202.497 42.3978 204.14 44.1333 204.14 46.8738C204.142 49.3774 202.57 51.3278 199.979 51.3278ZM199.931 44.2065C198.731 44.2065 197.972 45.2239 197.972 46.8396C197.972 48.503 198.707 49.4971 199.94 49.4971C201.152 49.4971 201.859 48.5042 201.859 46.8042C201.86 45.1872 201.126 44.2102 199.931 44.2102V44.2065Z" fill="#7D8888"/>
<path d="M205.388 42.6018H209.684C211.159 42.6018 212.443 43.1648 212.443 44.7439C212.443 45.5988 212.048 46.0873 211.328 46.4671C212.348 46.8018 212.863 47.5089 212.863 48.5616C212.863 49.3518 212.575 50.0101 212.023 50.4766C211.289 51.0994 210.464 51.1227 209.539 51.1227H205.388V42.6018ZM209.167 45.953C209.923 45.953 210.269 45.7014 210.269 45.1274C210.269 44.4215 209.705 44.3018 209.105 44.3018H207.57V45.9542L209.167 45.953ZM209.335 49.364C210.007 49.364 210.607 49.2321 210.607 48.3943C210.607 47.5565 209.971 47.4173 209.275 47.4173H207.571V49.3713L209.335 49.364Z" fill="#7D8888"/>
<path d="M14.8451 36.3574H0.00488281V51.1642H14.8451V36.3574Z" fill="#FF8900"/>
<path d="M14.8451 36.3574L0.00488281 51.1642V36.3574H14.8451Z" fill="#FFA700"/>
<path d="M29.6878 36.3574H14.8475V51.1642H29.6878V36.3574Z" fill="#FFB83A"/>
<path d="M29.6878 36.3574L14.8475 51.1642V36.3574H29.6878Z" fill="#FFCA49"/>
<path d="M29.6878 21.5494H14.8475V36.355H29.6878V21.5494Z" fill="#B8BA3C"/>
<path d="M29.6878 21.5494L14.8475 36.355V21.5494H29.6878Z" fill="#CACB4B"/>
<path d="M44.528 21.5494H29.6877V36.355H44.528V21.5494Z" fill="#71BB3E"/>
<path d="M44.528 21.5494L29.6877 36.355V21.5494H44.528Z" fill="#8DCC4E"/>
<path d="M44.528 6.74268H29.6877V21.5482H44.528V6.74268Z" fill="#4C9D33"/>
<path d="M44.528 6.74268L29.6877 21.5494V6.74268H44.528Z" fill="#5FB640"/>
</svg>
